<?xml version="1.0" standalone="no"?>
<!DOCTYPE svg PUBLIC "-//W3C//DTD SVG 20010904//EN"
 "http://www.w3.org/TR/2001/REC-SVG-20010904/DTD/svg10.dtd">
<svg version="1.0" xmlns="http://www.w3.org/2000/svg"
 width="512.000000pt" height="512.000000pt" viewBox="0 0 512.000000 512.000000"
 preserveAspectRatio="xMidYMid meet">

<g transform="translate(0.000000,512.000000) scale(0.100000,-0.100000)"
fill="#000000" stroke="none">
<path d="M970 5034 c0 -49 -3 -180 -7 -292 l-6 -202 -41 -10 c-69 -18 -188
-60 -253 -91 -102 -49 -154 -98 -244 -229 -110 -164 -168 -205 -334 -240 -33
-8 -66 -18 -72 -23 -16 -12 -17 -122 -3 -198 22 -119 120 -262 227 -334 35
-23 117 -66 184 -96 66 -30 138 -68 158 -86 89 -75 167 -228 190 -373 21 -130
13 -225 -44 -520 -53 -276 -59 -325 -58 -490 0 -270 63 -490 216 -760 90 -160
92 -165 92 -271 0 -90 -2 -99 -39 -175 -58 -118 -156 -211 -302 -287 -129 -66
-175 -110 -198 -188 -21 -69 -20 -91 3 -121 34 -42 78 -48 378 -48 317 0 344
5 412 70 22 22 52 62 66 90 17 34 71 241 161 617 125 525 138 572 179 652 50
96 106 168 187 237 188 161 484 192 808 84 90 -30 212 -84 170 -75 -14 3 -70
15 -125 27 -135 29 -374 32 -488 5 -249 -59 -432 -242 -507 -507 -31 -107 -38
-268 -15 -345 50 -176 211 -335 449 -445 47 -22 86 -41 86 -43 0 -1 -89 -1
-198 1 -119 3 -227 0 -271 -7 -143 -22 -236 -91 -267 -198 -13 -46 -13 -55 0
-81 31 -59 -8 -57 1061 -57 l980 0 100 28 c268 73 456 223 524 417 l19 54 74
13 c522 88 812 460 759 975 -18 171 -64 343 -170 624 -139 372 -209 633 -230
861 -10 115 1 251 26 300 24 51 62 55 158 16 152 -61 276 -22 334 107 28 60
26 123 -3 187 -40 85 -144 144 -317 179 -192 39 -381 -19 -499 -154 -54 -61
-114 -184 -137 -279 -28 -119 -25 -426 5 -588 45 -240 117 -485 229 -780 121
-317 147 -421 147 -585 0 -95 -4 -125 -22 -171 -30 -75 -87 -138 -159 -176
-58 -31 -170 -69 -179 -60 -3 2 -12 51 -20 108 -64 440 -232 778 -519 1047
-155 145 -337 263 -615 398 -377 185 -417 206 -482 254 -169 128 -380 430
-422 605 -8 33 -31 132 -51 220 -52 225 -134 467 -211 623 -63 129 -70 137
-192 264 -123 127 -348 332 -542 493 -52 43 -105 88 -117 98 l-23 20 0 -89z"/>
</g>
</svg>
